<svg width="100" height="80.736" xmlns="http://www.w3.org/2000/svg">

 <g>
  <title>background</title>
  <rect fill="none" id="canvas_background" height="402" width="582" y="-1" x="-1"/>
 </g>
 <g>
  <title>Layer 1</title>
  <path id="svg_1" d="m18.915,71.766l-7.2,0c0.971,0.911 1.599,2.226 1.599,3.599c0,2.8 -2.286,5.083 -5.087,5.083c-2.8,0 -5.087,-2.283 -5.087,-5.083c0,-1.313 0.459,-2.571 1.43,-3.599l-4.57,0l0,-1.83l4.571,0l0,-7.487l67.083,0l0,-21.372l25.086,0l0,2.633l-13.086,0l0,11.424l7.829,0l0,12.632l-15.485,0c-1.141,0.17 -1.029,1.656 0.058,1.77l23.944,0l0,2.23l-9.43,0c0.913,0.911 1.542,2.226 1.542,3.599c0,2.8 -2.286,5.083 -5.086,5.083s-5.084,-2.283 -5.084,-5.083c0,-1.429 0.63,-2.739 1.543,-3.599l-7.6,0c0.058,0.225 0.111,0.458 0.111,0.625c0,4.574 -3.771,8.344 -8.285,8.344c-4.513,0 -8.227,-3.712 -8.227,-8.344c0,-0.168 0.057,-0.456 0.057,-0.684l-3.83,0c0,0.283 0.058,0.514 0.058,0.684c0,4.574 -3.771,8.344 -8.285,8.344c-4.513,0 -8.229,-3.712 -8.229,-8.344c0,-0.113 0.058,-0.285 0.115,-0.625l-4.114,0c0,0.284 0.057,0.458 0.057,0.625c0,4.574 -3.769,8.344 -8.286,8.344c-4.512,0 -8.228,-3.712 -8.228,-8.344c0,-0.167 0.058,-0.343 0.116,-0.625" fill="#ffffff"/>
  <path id="svg_2" d="m25.315,43.936c-1.372,-0.167 -2.4,-1.143 -2.171,-2.283l2.055,-6.172l-0.342,-4.229l-3.942,0l-3.945,0l-0.342,4.229l2.058,6.172c0.23,1.14 -0.799,2.116 -2.058,2.283l-6.458,0l-5.599,8.398l5.599,8.403l59.827,0l0,-16.855c-3.997,0.171 -3.712,-1.487 -3.997,-2.688l-24.916,0c-0.112,0.916 0,2.742 -3.142,2.742l-12.627,0l0,0z" fill="#ffffff"/>
  <path id="svg_3" d="m23.314,29.48l-4.629,0c0.629,-6.4 2.458,-11.028 7.599,-15.542c1.318,-2.115 0.287,-12.172 9.142,-13.716c8.688,-1.484 8.574,4.917 15.316,5.6c2.916,0.288 5.601,-2.341 8.57,-2.282c4.056,0.112 5.772,3.826 9.201,3.998c3.429,0.173 4.114,-2.056 7.43,-2.17c3.312,-0.114 7.828,3.657 7.828,7.202c0,4.056 -0.344,8.341 -7.085,10.055c-3.201,0.802 -5.999,-2.572 -9.201,-2.456c-2.856,0.056 -5.715,2.687 -8.515,2.687c-6.74,0 -6.397,-4.059 -10.168,-4.059c-3.942,0 -4.8,3.943 -10.8,4.286c-4.175,0.229 -6.287,-2.628 -9.145,-1.713c-4.514,1.482 -5.256,8.11 -5.543,8.11" fill="#ffffff"/>
 </g>
</svg>